<?xml version="1.0" encoding="utf-8"?>
<svg xmlns="http://www.w3.org/2000/svg" version="1.1" viewBox="0 0 1400 340">
	<title>The titlepage for the Standard Ebooks edition of The New State, by Mary Parker Follett</title>
	<g aria-label="THE NEW STATE">
		<path d="M292.97,68.25l0.00-15.44l54.27,0.00l0.00,15.44l-18.34,0.00l0.00,61.75l-17.59,0.00l0.00-61.75l-18.34,0.00z"/>
		<path d="M376.19,99.03l0.00,30.97l-17.59,0.00l0.00-77.19l17.59,0.00l0.00,30.78l24.89,0.00l0.00-30.78l17.59,0.00l0.00,77.19l-17.59,0.00l0.00-30.97l-24.89,0.00z"/>
		<path d="M479.06,52.81l0.00,15.44l-26.57,0.00l0.00,15.35l25.45,0.00l0.00,15.44l-25.45,0.00l0.00,15.53l26.57,0.00l0.00,15.44l-44.16,0.00l0.00-77.19l44.16,0.00z"/>
		<path d="M542.30,82.09l0.00,47.91l-17.59,0.00l0.00-77.19l17.59,0.00l30.69,47.91l0.19,0.00l0.00-47.91l17.59,0.00l0.00,77.19l-17.59,0.00l-30.69-47.91l-0.19,0.00z"/>
		<path d="M651.16,52.81l0.00,15.44l-26.57,0.00l0.00,15.35l25.45,0.00l0.00,15.44l-25.45,0.00l0.00,15.53l26.57,0.00l0.00,15.44l-44.16,0.00l0.00-77.19l44.16,0.00z"/>
		<path d="M725.50,130.00l-12.35-43.32l-12.35,43.32l-19.56,0.00l-21.99-77.19l19.56,0.00l13.19,52.96l0.47,0.00l14.04-52.96l13.29,0.00l14.04,52.96l0.47,0.00l13.19-52.96l19.46,0.00l-21.99,77.19l-19.46,0.00z"/>
		<path d="M833.27,51.40c14.04,0.00,23.95,7.30,23.95,7.30l-7.11,14.04s-7.67-5.33-15.63-5.33c-5.99,0.00-9.17,2.71-9.17,6.92c0.00,4.30,7.30,7.39,16.09,11.13c8.61,3.65,18.06,10.95,18.06,21.05c0.00,18.43-14.04,24.89-29.10,24.89c-18.06,0.00-29.01-10.20-29.01-10.20l8.80-14.78s10.29,8.70,18.90,8.70c3.84,0.00,11.13-0.37,11.13-7.58c0.00-5.61-8.23-8.14-17.40-12.73c-9.26-4.58-14.69-11.79-14.69-19.84c0.00-14.41,12.73-23.58,25.17-23.58z"/>
		<path d="M863.35,68.25l0.00-15.44l54.27,0.00l0.00,15.44l-18.34,0.00l0.00,61.75l-17.59,0.00l0.00-61.75l-18.34,0.00z"/>
		<path d="M963.70,52.81l31.16,77.19l-18.90,0.00l-5.71-15.44l-29.38,0.00l-5.71,15.44l-18.90,0.00l31.16-77.19l16.28,0.00z  M964.26,99.12l-8.61-22.46l-0.19,0.00l-8.61,22.46l17.40,0.00z"/>
		<path d="M993.49,68.25l0.00-15.44l54.27,0.00l0.00,15.44l-18.34,0.00l0.00,61.75l-17.59,0.00l0.00-61.75l-18.34,0.00z"/>
		<path d="M1103.29,52.81l0.00,15.44l-26.57,0.00l0.00,15.35l25.45,0.00l0.00,15.44l-25.45,0.00l0.00,15.53l26.57,0.00l0.00,15.44l-44.16,0.00l0.00-77.19l44.16,0.00z"/>
	</g>
	<g aria-label="MARY PARKER FOLLETT">
		<path d="M279.60,290.00l-2.74-34.32l-0.35,0.00l-11.86,33.96l-7.86,0.00l-11.86-33.96l-0.35,0.00l-2.74,34.32l-13.19,0.00l5.19-57.89l14.04,0.00l12.84,33.40l12.84-33.40l14.04,0.00l5.19,57.89l-13.19,0.00z"/>
		<path d="M332.53,232.11l23.37,57.89l-14.18,0.00l-4.28-11.58l-22.04,0.00l-4.28,11.58l-14.18,0.00l23.37-57.89l12.21,0.00z  M332.95,266.84l-6.46-16.84l-0.14,0.00l-6.46,16.84l13.05,0.00z"/>
		<path d="M363.14,232.11l20.70,0.00c10.74,0.00,18.88,5.82,18.88,17.19c0.00,8.70-4.77,14.53-11.86,16.77l19.93,23.93l-16.77,0.00l-17.68-22.88l0.00,22.88l-13.19,0.00l0.00-57.89z  M376.33,257.79l1.54,0.00c4.98,0.00,10.95-0.35,10.95-7.58s-5.96-7.58-10.95-7.58l-1.54,0.00l0.00,15.16z"/>
		<path d="M405.75,232.11l15.86,0.00l12.07,18.53l12.07-18.53l15.86,0.00l-21.33,31.93l0.00,25.96l-13.19,0.00l0.00-25.96z"/>
		<path d="M492.88,232.11l21.12,0.00c11.30,0.00,19.79,5.82,19.79,17.82c0.00,11.93-8.49,18.60-19.79,18.60l-7.93,0.00l0.00,21.47l-13.19,0.00l0.00-57.89z  M506.07,258.00l3.72,0.00c5.19,0.00,10.11-1.75,10.11-7.65c0.00-5.96-4.91-7.72-10.11-7.72l-3.72,0.00l0.00,15.37z"/>
		<path d="M569.53,232.11l23.37,57.89l-14.18,0.00l-4.28-11.58l-22.04,0.00l-4.28,11.58l-14.18,0.00l23.37-57.89l12.21,0.00z  M569.95,266.84l-6.46-16.84l-0.14,0.00l-6.46,16.84l13.05,0.00z"/>
		<path d="M600.14,232.11l20.70,0.00c10.74,0.00,18.88,5.82,18.88,17.19c0.00,8.70-4.77,14.53-11.86,16.77l19.93,23.93l-16.77,0.00l-17.68-22.88l0.00,22.88l-13.19,0.00l0.00-57.89z  M613.33,257.79l1.54,0.00c4.98,0.00,10.95-0.35,10.95-7.58s-5.96-7.58-10.95-7.58l-1.54,0.00l0.00,15.16z"/>
		<path d="M708.09,290.00l-18.18,0.00l-21.33-24.56l0.00,24.56l-13.19,0.00l0.00-57.89l13.19,0.00l0.00,23.65l19.86-23.65l16.00,0.00l-23.30,27.44z"/>
		<path d="M748.74,232.11l0.00,11.58l-19.93,0.00l0.00,11.51l19.09,0.00l0.00,11.58l-19.09,0.00l0.00,11.65l19.93,0.00l0.00,11.58l-33.12,0.00l0.00-57.89l33.12,0.00z"/>
		<path d="M761.32,232.11l20.70,0.00c10.74,0.00,18.88,5.82,18.88,17.19c0.00,8.70-4.77,14.53-11.86,16.77l19.93,23.93l-16.77,0.00l-17.68-22.88l0.00,22.88l-13.19,0.00l0.00-57.89z  M774.51,257.79l1.54,0.00c4.98,0.00,10.95-0.35,10.95-7.58s-5.96-7.58-10.95-7.58l-1.54,0.00l0.00,15.16z"/>
		<path d="M874.19,232.11l0.00,11.58l-20.28,0.00l0.00,11.51l18.74,0.00l0.00,11.58l-18.74,0.00l0.00,23.23l-13.19,0.00l0.00-57.89l33.47,0.00z"/>
		<path d="M882.91,261.02c0.00-16.91,13.26-29.96,29.19-29.96c16.07,0.00,29.12,13.05,29.12,29.96s-12.49,30.04-29.12,30.04c-17.12,0.00-29.19-13.12-29.19-30.04z  M897.16,261.02c0.00,8.63,4.14,17.26,14.95,17.26c10.53,0.00,14.88-8.63,14.88-17.26s-4.63-17.26-14.88-17.26c-10.18,0.00-14.95,8.63-14.95,17.26z"/>
		<path d="M965.25,232.11l0.00,46.32l19.93,0.00l0.00,11.58l-33.12,0.00l0.00-57.89l13.19,0.00z"/>
		<path d="M1009.89,232.11l0.00,46.32l19.93,0.00l0.00,11.58l-33.12,0.00l0.00-57.89l13.19,0.00z"/>
		<path d="M1074.47,232.11l0.00,11.58l-19.93,0.00l0.00,11.51l19.09,0.00l0.00,11.58l-19.09,0.00l0.00,11.65l19.93,0.00l0.00,11.58l-33.12,0.00l0.00-57.89l33.12,0.00z"/>
		<path d="M1083.40,243.68l0.00-11.58l40.70,0.00l0.00,11.58l-13.75,0.00l0.00,46.32l-13.19,0.00l0.00-46.32l-13.75,0.00z"/>
		<path d="M1131.21,243.68l0.00-11.58l40.70,0.00l0.00,11.58l-13.75,0.00l0.00,46.32l-13.19,0.00l0.00-46.32l-13.75,0.00z"/>
	</g>
</svg>
